<svg width="231" height="74" viewBox="0 0 231 74" fill="none" xmlns="http://www.w3.org/2000/svg">
<path d="M146.316 67.6671V46.703H133.439V40.1861H168.694V46.703H155.777V67.6671H146.316Z" fill="black"></path>
<path d="M120.46 40.4609L135.064 67.5886H125.839L123.287 62.642H103.697L101.145 67.5886H91.9584L106.523 40.4609H120.46ZM106.877 56.5177H120.146L114.964 46.546H112.02L106.877 56.5177Z" fill="black"></path>
<path d="M48.1293 67.6278V40.2253H57.4728V50.197H77.534V40.2253H86.9168V67.6278H77.534V56.8317H57.4728V67.6278H48.1293Z" fill="black"></path>
<path d="M20.0611 68.0989C17.6664 68.0989 15.5071 67.9419 13.505 67.5886C11.5028 67.2352 9.81465 66.8034 8.47985 66.2538C7.1058 65.6649 5.92805 64.9975 4.86807 64.2123C3.80808 63.3879 2.98365 62.6027 2.39477 61.7783C1.8059 60.9539 1.33479 60.0902 0.942206 59.148C0.54962 58.2058 0.27481 57.3421 0.157034 56.5962C0.0392586 55.811 0 55.0651 0 54.3192V53.2199C0 52.0422 0.117776 50.9037 0.353327 49.8437C0.588879 48.7837 1.1385 47.606 1.96293 46.3104C2.82662 45.0149 3.92586 43.8764 5.29991 42.9342C6.67396 41.992 8.63689 41.2068 11.1887 40.5787C13.7012 39.9113 16.6849 39.5972 20.0611 39.5972H21.71C25.047 39.5972 27.9521 39.872 30.5039 40.4216C33.0165 41.0105 34.9794 41.6779 36.3535 42.4631C37.7275 43.2875 38.866 44.1905 39.7297 45.2504C40.6326 46.3104 41.1823 47.2526 41.4571 48.0771C41.6926 48.9015 41.8104 49.6867 41.8104 50.4326V50.8644H31.8387C31.7602 50.5503 31.6817 50.3148 31.5639 50.0792C31.4461 49.8437 31.1321 49.4511 30.6217 48.9407C30.1113 48.4304 29.5225 47.9985 28.8158 47.6452C28.1092 47.2919 27.0492 46.9778 25.6751 46.703C24.2618 46.4282 22.6915 46.2712 20.8856 46.2712C18.7263 46.2712 16.8812 46.4674 15.3894 46.8993C13.8583 47.2919 12.7198 47.8415 11.9346 48.5482C11.1887 49.2941 10.6391 50.04 10.325 50.8252C9.97168 51.6103 9.81465 52.474 9.81465 53.4162V53.8481C9.81465 54.751 10.0109 55.6147 10.3643 56.4391C10.7176 57.2636 11.3065 58.0487 12.0916 58.8339C12.8768 59.6191 14.0153 60.2472 15.5464 60.7183C17.0775 61.1894 18.8834 61.425 20.9641 61.425C27.1277 61.425 30.7395 59.8154 31.8387 56.6354C31.878 56.5962 31.878 56.5569 31.878 56.5177H41.8497V56.9102C41.8497 57.7347 41.7319 58.5984 41.4571 59.462C41.143 60.3257 40.5541 61.2679 39.6904 62.3672C38.7875 63.4272 37.649 64.3694 36.2357 65.1938C34.8616 65.979 32.8987 66.6856 30.3861 67.2745C27.8736 67.8241 24.9685 68.0989 21.71 68.0989H20.0611Z" fill="black"></path>
<path d="M120.233 0.353333V27.7558H110.889V0.353333H120.233Z" fill="black"></path>
<path d="M10.5605 21.3174H103.996V27.7558H1.17773V1.52588e-05H103.564V6.32065H10.5605V10.4035H103.054V16.7634H10.5605V21.3174Z" fill="black"></path>
<path fill-rule="evenodd" clip-rule="evenodd" d="M144.41 1.52062C145.388 1.86834 146.042 2.79427 146.042 3.83261V21.3216L205.01 8.18523C205.981 7.9688 206.987 8.36072 207.556 9.17734C208.125 9.99395 208.145 11.0734 207.605 11.9099L188.473 41.5794L228.021 48.0305C229.091 48.2051 229.92 49.0615 230.06 50.1368C230.199 51.2122 229.616 52.2515 228.626 52.6931L183.233 72.9358C181.995 73.4877 180.544 72.9319 179.993 71.6942C179.441 70.4566 179.997 69.0059 181.234 68.454L219.133 51.5529L183.985 45.8196C183.169 45.6863 182.474 45.1505 182.138 44.3943C181.802 43.6382 181.87 42.7636 182.318 42.0681L200.241 14.2752L144.122 26.777C143.395 26.9389 142.634 26.7621 142.053 26.2964C141.473 25.8307 141.135 25.1265 141.135 24.382V10.7366L130.77 23.4768C129.914 24.528 128.369 24.6869 127.318 23.8317C126.267 22.9765 126.108 21.4311 126.963 20.3799L141.685 2.28413C142.34 1.47868 143.432 1.1729 144.41 1.52062Z" fill="black"></path>
</svg>
